<svg xmlns="http://www.w3.org/2000/svg" viewBox="0 0 796.11 281.04"><defs><style>.cls-1,.cls-4{fill:#fff;}.cls-2{fill:#959ca1;}.cls-3{fill:#f94c2b;}.cls-3,.cls-4{fill-rule:evenodd;}</style></defs><g id="Camada_2" data-name="Camada 2"><g id="Camada_1-2" data-name="Camada 1"><path class="cls-1" d="M322.71,195.2a7.89,7.89,0,0,1-8.18-7.91V69.11a7.62,7.62,0,0,1,2.38-5.54,7.88,7.88,0,0,1,5.8-2.37,7.46,7.46,0,0,1,5.67,2.37,7.81,7.81,0,0,1,2.25,5.54v39.57l-4,.79a60.27,60.27,0,0,1,4.62-18.33A62.62,62.62,0,0,1,341.7,74.39,52.8,52.8,0,0,1,357.4,62a43.47,43.47,0,0,1,20.44-4.75,22.69,22.69,0,0,1,9.24,2c3,1.32,4.48,3.47,4.48,6.46a8.21,8.21,0,0,1-2.11,6.07,6.84,6.84,0,0,1-5,2.11,12.09,12.09,0,0,1-5.15-1.32A16.93,16.93,0,0,0,372,71.22a28.78,28.78,0,0,0-14.77,4.36,50.74,50.74,0,0,0-13.45,11.73,60.39,60.39,0,0,0-9.63,16.49,49.85,49.85,0,0,0-3.56,18.33v65.16a8.12,8.12,0,0,1-7.92,7.91Z"></path><path class="cls-1" d="M457.51,197.84q-20.58,0-36-8.7a62.24,62.24,0,0,1-24.14-24.27q-8.7-15.57-8.7-36.41,0-22.41,8.83-38.24t22.95-24.41a56.79,56.79,0,0,1,29.94-8.57,64.12,64.12,0,0,1,22.56,4.09,56.65,56.65,0,0,1,19.39,12.13A62.75,62.75,0,0,1,506,93.12q5.28,11.61,5.54,26.9a7.17,7.17,0,0,1-2.37,5.41,7.79,7.79,0,0,1-5.54,2.24H397.89l-3.17-14.24H498.39L495,116.59v-5.27q-1.05-12.4-7.91-21a46.8,46.8,0,0,0-16.49-13.19,46.08,46.08,0,0,0-20.18-4.62,45.43,45.43,0,0,0-16.22,3.17,42.44,42.44,0,0,0-15,9.89,50.69,50.69,0,0,0-10.95,17.15Q404,113.16,404,127.41a62.2,62.2,0,0,0,6.33,28.22,48.84,48.84,0,0,0,18.2,20.05q11.86,7.4,28.75,7.39a48.36,48.36,0,0,0,16.36-2.64,47.54,47.54,0,0,0,13.06-7,51.76,51.76,0,0,0,9.36-9.1,8.21,8.21,0,0,1,5.54-2.37,6.42,6.42,0,0,1,4.88,2.11,6.77,6.77,0,0,1,2,4.74,7.24,7.24,0,0,1-2.64,5.54,71.06,71.06,0,0,1-20.58,16.49A56.34,56.34,0,0,1,457.51,197.84Z"></path><path class="cls-1" d="M523.45,173.84a10.3,10.3,0,0,1-2-6.2,5.85,5.85,0,0,1,3.3-4.88,6.27,6.27,0,0,1,4.88-1.59,8.42,8.42,0,0,1,5.15,2.64,56.06,56.06,0,0,0,17.27,14.91q10.15,5.67,24.14,5.67a44.36,44.36,0,0,0,14.64-2.51,28.71,28.71,0,0,0,12-7.65,18.48,18.48,0,0,0,4.75-13.06c0-5.44-1.58-9.8-4.75-13a35.17,35.17,0,0,0-12.26-7.92,117.46,117.46,0,0,0-16.23-5.14q-9-2.37-17.27-5.41A64.2,64.2,0,0,1,542.18,122a35,35,0,0,1-10.42-11.21q-3.82-6.58-3.82-16.09a33.12,33.12,0,0,1,5.93-19.52A39.34,39.34,0,0,1,550.36,62a56.49,56.49,0,0,1,23.48-4.75A66.11,66.11,0,0,1,588.35,59a59,59,0,0,1,15,5.67,45.31,45.31,0,0,1,13.19,10.81,7.48,7.48,0,0,1,2.37,5.41,8,8,0,0,1-2.63,5.67A7.28,7.28,0,0,1,611.43,88a6.26,6.26,0,0,1-4.62-2.24,40.18,40.18,0,0,0-15-10.68,48.82,48.82,0,0,0-18.72-3.56,42.91,42.91,0,0,0-14.38,2.37,26.61,26.61,0,0,0-11.21,7.39q-4.49,5-4.49,13.19a18.37,18.37,0,0,0,5.41,12.39,38.34,38.34,0,0,0,12.93,7.92,160,160,0,0,0,18.07,5.8,154.11,154.11,0,0,1,16.22,5,56.81,56.81,0,0,1,13.72,7.26,32.63,32.63,0,0,1,9.49,10.94q3.57,6.6,3.56,16.62a32,32,0,0,1-6.46,20.05,41,41,0,0,1-17.28,12.93,62.26,62.26,0,0,1-24,4.48,71.18,71.18,0,0,1-27.57-5.54Q533.74,186.77,523.45,173.84Z"></path><path class="cls-1" d="M703.09,59.35q16.62,0,26.91,7.12a41.85,41.85,0,0,1,15.17,19.26,71.58,71.58,0,0,1,4.88,26.91v74.65a8.12,8.12,0,0,1-7.92,7.91,7.89,7.89,0,0,1-8.18-7.91V112.64a53.89,53.89,0,0,0-3.29-19.39A30.19,30.19,0,0,0,720.11,79.4q-7.26-5.28-19.66-5.28a43.93,43.93,0,0,0-21,5.28,45.46,45.46,0,0,0-16,13.85,32.79,32.79,0,0,0-6.06,19.39v74.65a8.12,8.12,0,0,1-7.92,7.91,7.88,7.88,0,0,1-8.17-7.91V7.91a7.61,7.61,0,0,1,2.37-5.54A7.9,7.9,0,0,1,649.54,0a7.46,7.46,0,0,1,5.67,2.37,7.81,7.81,0,0,1,2.25,5.54V93.38l-6.07,9.23a35.47,35.47,0,0,1,5.14-16,54.79,54.79,0,0,1,12-14,59.46,59.46,0,0,1,16.35-9.76A49,49,0,0,1,703.09,59.35Z"></path><path class="cls-2" d="M317.6,266.38a20.85,20.85,0,0,1-8.13-7.81,22.77,22.77,0,0,1,0-22.47,21,21,0,0,1,8.17-7.8,23.93,23.93,0,0,1,11.62-2.82,24.18,24.18,0,0,1,9.54,1.82,19.46,19.46,0,0,1,7.29,5.28l-5.1,4.8a14.89,14.89,0,0,0-11.36-5,15.93,15.93,0,0,0-7.83,1.91,13.84,13.84,0,0,0-5.41,5.32,16.29,16.29,0,0,0,0,15.42,13.84,13.84,0,0,0,5.41,5.32,15.93,15.93,0,0,0,7.83,1.91,14.81,14.81,0,0,0,11.36-5l5.1,4.86a19.62,19.62,0,0,1-7.32,5.28,24.58,24.58,0,0,1-9.57,1.82A24,24,0,0,1,317.6,266.38Z"></path><path class="cls-2" d="M382.19,236.17l-15.18,35q-2.13,5.28-5.17,7.43a12.32,12.32,0,0,1-7.34,2.16,15,15,0,0,1-4.8-.79,10.52,10.52,0,0,1-3.89-2.19l3-5.58a8.36,8.36,0,0,0,2.58,1.64,8,8,0,0,0,3,.6,5.14,5.14,0,0,0,3.3-1,9,9,0,0,0,2.4-3.46l.55-1.27-14.15-32.55h7.9l10.2,24,10.26-24Z"></path><path class="cls-2" d="M412.22,237.87a14.87,14.87,0,0,1,5.86,5.83,18.89,18.89,0,0,1,0,17.39,14.81,14.81,0,0,1-5.86,5.86,17.19,17.19,0,0,1-8.47,2.07,15.87,15.87,0,0,1-6.11-1.15A11.72,11.72,0,0,1,393,264.4v4.19h-7.23V223.53h7.59v16.58a12.83,12.83,0,0,1,4.59-3.22,15.17,15.17,0,0,1,5.8-1.09A17.19,17.19,0,0,1,412.22,237.87Zm-2.43,21.86a11.35,11.35,0,0,0,0-14.7,9.18,9.18,0,0,0-6.89-2.79,9.72,9.72,0,0,0-4.92,1.24,9,9,0,0,0-3.47,3.56,11.86,11.86,0,0,0,0,10.68,9,9,0,0,0,3.47,3.56,9.72,9.72,0,0,0,4.92,1.24A9.18,9.18,0,0,0,409.79,259.73Z"></path><path class="cls-2" d="M456.64,254.81H431.19a8.83,8.83,0,0,0,3.5,5.68,11.48,11.48,0,0,0,7,2.09,11.83,11.83,0,0,0,8.81-3.52l4.06,4.68a13.67,13.67,0,0,1-5.52,3.94,21.87,21.87,0,0,1-16.95-.79,15.28,15.28,0,0,1-6.28-5.92,16.68,16.68,0,0,1-2.22-8.59,16.93,16.93,0,0,1,2.16-8.53,15.26,15.26,0,0,1,6-5.92,17.4,17.4,0,0,1,8.62-2.13,17,17,0,0,1,8.48,2.1,14.79,14.79,0,0,1,5.82,5.89,17.81,17.81,0,0,1,2.1,8.77Q456.76,253.36,456.64,254.81ZM434.2,244a9.11,9.11,0,0,0-3.07,5.74h18.4a8.93,8.93,0,0,0-3-5.71,9.87,9.87,0,0,0-12.36,0Z"></path><path class="cls-2" d="M481.6,235.8V243a9.81,9.81,0,0,0-1.76-.18,9.18,9.18,0,0,0-6.93,2.58q-2.49,2.58-2.49,7.44v15.72h-7.59V236.17h7.23v4.73Q473.35,235.8,481.6,235.8Z"></path><path class="cls-2" d="M503.52,226.08H522.1a26.58,26.58,0,0,1,12.09,2.65,19.51,19.51,0,0,1,8.19,7.47,22.71,22.71,0,0,1,0,22.28,19.51,19.51,0,0,1-8.19,7.47,26.71,26.71,0,0,1-12.09,2.64H503.52Zm18.22,35.83a18,18,0,0,0,8.23-1.79,12.77,12.77,0,0,0,5.46-5.1,16.4,16.4,0,0,0,0-15.36,12.77,12.77,0,0,0-5.46-5.1,18,18,0,0,0-8.23-1.8H511.41v29.15Z"></path><path class="cls-2" d="M582.16,254.81H556.72a8.78,8.78,0,0,0,3.49,5.68,11.48,11.48,0,0,0,7,2.09,11.83,11.83,0,0,0,8.81-3.52l4.07,4.68a13.7,13.7,0,0,1-5.53,3.94,21.84,21.84,0,0,1-16.94-.79,15.24,15.24,0,0,1-6.29-5.92,16.68,16.68,0,0,1-2.22-8.59,16.93,16.93,0,0,1,2.16-8.53,15.26,15.26,0,0,1,6-5.92,17.44,17.44,0,0,1,8.63-2.13,17,17,0,0,1,8.47,2.1,14.82,14.82,0,0,1,5.83,5.89,17.91,17.91,0,0,1,2.09,8.77Q582.28,253.36,582.16,254.81ZM559.72,244a9.11,9.11,0,0,0-3.07,5.74h18.4a8.93,8.93,0,0,0-3-5.71,9,9,0,0,0-6.19-2.19A9.16,9.16,0,0,0,559.72,244Z"></path><path class="cls-2" d="M596.73,234.46v1.95h8.93v6.07H597v26.11h-7.59V242.48H584v-6.07h5.35v-2.07a11.08,11.08,0,0,1,3-8.23c2-2,4.88-3,8.57-3a11.74,11.74,0,0,1,6.86,1.76l-2.13,5.71a7.25,7.25,0,0,0-4.19-1.34Q596.73,229.24,596.73,234.46Z"></path><path class="cls-2" d="M639.49,254.81H614a8.85,8.85,0,0,0,3.49,5.68,11.51,11.51,0,0,0,7,2.09,11.79,11.79,0,0,0,8.8-3.52l4.07,4.68a13.74,13.74,0,0,1-5.52,3.94,21.87,21.87,0,0,1-16.95-.79,15.22,15.22,0,0,1-6.28-5.92,16.68,16.68,0,0,1-2.22-8.59,16.93,16.93,0,0,1,2.16-8.53,15.2,15.2,0,0,1,6-5.92,17.4,17.4,0,0,1,8.62-2.13,17,17,0,0,1,8.47,2.1,14.75,14.75,0,0,1,5.83,5.89,17.81,17.81,0,0,1,2.1,8.77Q639.61,253.36,639.49,254.81ZM617.05,244a9.06,9.06,0,0,0-3.07,5.74h18.4a8.93,8.93,0,0,0-3-5.71,9.87,9.87,0,0,0-12.36,0Z"></path><path class="cls-2" d="M673.92,239.38q3.71,3.59,3.7,10.63v18.58H670V251c0-2.83-.67-5-2-6.4a7.41,7.41,0,0,0-5.71-2.16,8.77,8.77,0,0,0-6.62,2.52q-2.43,2.52-2.43,7.26v16.39h-7.59V236.17h7.23v4.19a11.84,11.84,0,0,1,4.73-3.41,17.27,17.27,0,0,1,6.44-1.15A13.59,13.59,0,0,1,673.92,239.38Z"></path><path class="cls-2" d="M688.43,268a19.52,19.52,0,0,1-6-2.61l2.92-5.77a18.4,18.4,0,0,0,5.25,2.33,21.69,21.69,0,0,0,6,.88q6.79,0,6.8-3.58a2.41,2.41,0,0,0-1.73-2.37,29.8,29.8,0,0,0-5.56-1.27,45.14,45.14,0,0,1-6.52-1.4,10.06,10.06,0,0,1-4.38-2.76,7.75,7.75,0,0,1-1.85-5.5,8.67,8.67,0,0,1,3.86-7.38q3.86-2.76,10.41-2.76a29.76,29.76,0,0,1,6.68.76,18.88,18.88,0,0,1,5.47,2l-2.92,5.77a18,18,0,0,0-9.29-2.43,10.24,10.24,0,0,0-5.07,1,3,3,0,0,0-1.73,2.64,2.65,2.65,0,0,0,1.85,2.58,29.59,29.59,0,0,0,5.74,1.43,44.68,44.68,0,0,1,6.38,1.39,10.09,10.09,0,0,1,4.28,2.67,7.49,7.49,0,0,1,1.79,5.35,8.47,8.47,0,0,1-4,7.29Q702.95,269,696.14,269A29.36,29.36,0,0,1,688.43,268Z"></path><path class="cls-2" d="M746.61,254.81H721.16a8.83,8.83,0,0,0,3.5,5.68,11.48,11.48,0,0,0,7,2.09,11.83,11.83,0,0,0,8.81-3.52l4.06,4.68a13.67,13.67,0,0,1-5.52,3.94,21.87,21.87,0,0,1-16.95-.79,15.28,15.28,0,0,1-6.28-5.92,16.68,16.68,0,0,1-2.22-8.59,16.93,16.93,0,0,1,2.16-8.53,15.26,15.26,0,0,1,6-5.92,17.43,17.43,0,0,1,8.62-2.13,17,17,0,0,1,8.48,2.1,14.82,14.82,0,0,1,5.83,5.89,17.91,17.91,0,0,1,2.09,8.77Q746.73,253.36,746.61,254.81ZM724.17,244a9.11,9.11,0,0,0-3.07,5.74h18.4a8.93,8.93,0,0,0-3-5.71,9.87,9.87,0,0,0-12.36,0Z"></path><path class="cls-3" d="M137.56,281A137.45,137.45,0,1,1,274.88,143.48,137.44,137.44,0,0,1,137.56,281"></path><path class="cls-1" d="M137.47,176.63v0h0v0a33,33,0,1,0-33.07-33h0a33,33,0,0,0,33.06,33m0,15h0v0a48,48,0,0,1-48-48h0a48,48,0,1,1,48.06,48Z"></path><rect class="cls-1" x="126.23" y="182.89" width="22.42" height="56.29"></rect><path class="cls-4" d="M774.78,41.19a5.4,5.4,0,0,0,3.28-.92,3,3,0,0,0,1.26-2.56,2.64,2.64,0,0,0-1.06-2.41,6,6,0,0,0-3.19-.67h-4.34v6.56Zm8,9.93a1.17,1.17,0,0,1,.77.63,1.13,1.13,0,0,1,0,.92,1.71,1.71,0,0,1-1.06,1.16,3.28,3.28,0,0,1-1.93.19,3.06,3.06,0,0,1-2.12-1.6,7.37,7.37,0,0,1-.87-3.9,4.21,4.21,0,0,0-.82-2.75,3,3,0,0,0-2.46-1h-3.57v7.33a1.71,1.71,0,0,1-.63,1.26,2,2,0,0,1-1.39.57,1.93,1.93,0,0,1-1.36-.53,1.72,1.72,0,0,1-.58-1.3V32.4a1.54,1.54,0,0,1,.44-1,1.41,1.41,0,0,1,1.11-.49h7q7.82,0,7.82,6.57c0,2.83-1.54,4.69-4.64,5.59a6.73,6.73,0,0,1,2.13,2.12,5.5,5.5,0,0,1,.87,3,8.28,8.28,0,0,0,.33,2.12,1.28,1.28,0,0,0,.92.87m-8.3,8.69a17.44,17.44,0,0,0,8.73-2.22,16.2,16.2,0,0,0,6.18-6.22,18,18,0,0,0,2.27-9,18,18,0,0,0-2.27-9,16.13,16.13,0,0,0-6.18-6.22,17.33,17.33,0,0,0-8.73-2.22,17.59,17.59,0,0,0-8.77,2.22,16.38,16.38,0,0,0-6.28,6.22,17.73,17.73,0,0,0-2.31,9,17.74,17.74,0,0,0,2.31,9,16.45,16.45,0,0,0,6.28,6.22,17.69,17.69,0,0,0,8.77,2.22m0-39.08a21.49,21.49,0,0,1,10.86,2.85,21.28,21.28,0,0,1,10.76,18.76,21.53,21.53,0,0,1-2.9,11,20.79,20.79,0,0,1-7.86,7.77,22.44,22.44,0,0,1-21.71,0,20.72,20.72,0,0,1-7.86-7.77,21.53,21.53,0,0,1-2.9-11,21.26,21.26,0,0,1,2.9-11,21,21,0,0,1,7.86-7.77,21.42,21.42,0,0,1,10.85-2.85"></path></g></g></svg>